<svg width="23" height="23" viewBox="0 0 23 23" fill="none" xmlns="http://www.w3.org/2000/svg">
<path d="M18.2296 19.0958C17.4144 18.0164 16.3597 17.1411 15.1486 16.5388C13.9376 15.9365 12.6032 15.6237 11.2506 15.6249C9.898 15.6237 8.56361 15.9365 7.35254 16.5388C6.14146 17.1411 5.08678 18.0164 4.27159 19.0958M18.2296 19.0958C19.8203 17.6808 20.9422 15.8157 21.4486 13.7478C21.955 11.6799 21.8209 9.5069 21.064 7.51699C20.307 5.52708 18.9631 3.81428 17.2104 2.60573C15.4577 1.39719 13.379 0.75 11.25 0.75C9.12102 0.75 7.04234 1.39719 5.28962 2.60573C3.53691 3.81428 2.19297 5.52708 1.43604 7.51699C0.679115 9.5069 0.544962 11.6799 1.05137 13.7478C1.55779 15.8157 2.68083 17.6808 4.27159 19.0958M18.2296 19.0958C16.3093 20.8087 13.8238 21.7537 11.2506 21.75C8.67695 21.7539 6.19219 20.809 4.27159 19.0958M14.7506 8.62478C14.7506 9.55305 14.3818 10.4433 13.7255 11.0997C13.0691 11.7561 12.1788 12.1248 11.2506 12.1248C10.3223 12.1248 9.43209 11.7561 8.77571 11.0997C8.11933 10.4433 7.75058 9.55305 7.75058 8.62478C7.75058 7.69651 8.11933 6.80626 8.77571 6.14987C9.43209 5.49348 10.3223 5.12473 11.2506 5.12473C12.1788 5.12473 13.0691 5.49348 13.7255 6.14987C14.3818 6.80626 14.7506 7.69651 14.7506 8.62478Z" stroke="#444748" stroke-width="1.5" stroke-linecap="round" stroke-linejoin="round"/>
</svg>
