<svg width="22" height="26" viewBox="0 0 22 26" fill="none" xmlns="http://www.w3.org/2000/svg">
<path d="M22 4.08775V13.2737C22 13.2737 22 18.2341 18.9918 21.1526C17.8748 22.2363 14.5946 24.3117 12.6008 25.5343C11.6091 26.1424 10.3814 26.1595 9.38529 25.559C7.68643 24.5349 5.00579 22.8235 3.14286 21.1736C0.314286 18.6685 0 13.2737 0 13.2737V4.08775L3.14286 2.91977V14.1923C3.14286 14.1923 3.72657 17.683 5.78833 19.1986C7.85009 20.7143 11 22.6893 11 22.6893C11 22.6893 14.0601 20.7603 16.2117 19.1986C18.3633 17.637 18.8571 14.1923 18.8571 14.1923V2.91977L22 4.08775ZM15.6245 1.71851V5.14413L12.5714 4.08775V13.09C12.5714 13.2422 12.4508 13.3656 12.302 13.3656H9.60816C9.45937 13.3656 9.33878 13.2422 9.33878 13.09V4.08775L6.37551 5.19006V1.71851L11 0L15.6245 1.71851Z" fill="black"/>
</svg>
