<svg width="245" height="284" viewBox="0 0 245 284" fill="none" xmlns="http://www.w3.org/2000/svg">
<path d="M245 44.5V144.5C245 144.5 245 198.5 211.5 230.271C199.06 242.069 162.531 264.662 140.327 277.971C129.283 284.591 115.611 284.777 104.518 278.24C85.5989 267.092 55.7463 248.461 35 230.5C3.5 203.229 0 144.5 0 144.5V44.5L35 31.7852V154.5C35 154.5 41.5004 192.5 64.4609 209C87.4215 225.5 122.5 247 122.5 247C122.5 247 156.578 226 180.539 209C204.5 192 210 154.5 210 154.5V31.7852L245 44.5ZM174 18.708V56L140 44.5V142.5C140 144.157 138.657 145.5 137 145.5H107C105.343 145.5 104 144.157 104 142.5V44.5L71 56.5V18.708L122.5 0L174 18.708Z" fill="#D9D9D9"/>
</svg>
