<svg width="23" height="19" viewBox="0 0 23 19" fill="none" xmlns="http://www.w3.org/2000/svg">
<path d="M3.15567 7.276C3.26767 7.259 3.38267 7.25 3.49967 7.25H19.3117C19.4287 7.25 19.5437 7.259 19.6557 7.276M3.15567 7.276C2.57043 7.36663 2.04452 7.68434 1.69202 8.16022C1.33951 8.63609 1.18883 9.23175 1.27267 9.818L2.12967 15.818C2.20621 16.3541 2.47356 16.8447 2.88264 17.1996C3.29173 17.5545 3.81509 17.7499 4.35667 17.75H18.4557C18.9972 17.7499 19.5206 17.5545 19.9297 17.1996C20.3388 16.8447 20.6061 16.3541 20.6827 15.818L21.5397 9.818C21.6235 9.23175 21.4728 8.63609 21.1203 8.16022C20.7678 7.68434 20.2409 7.36663 19.6557 7.276M3.15567 7.276L3.15667 3.5C3.15667 2.90344 3.39358 2.33129 3.81532 1.90936C4.23706 1.48744 4.8091 1.25027 5.40567 1.25H9.28467C9.68236 1.25035 10.0636 1.40862 10.3447 1.69L12.4667 3.81C12.7477 4.09138 13.129 4.24965 13.5267 4.25H17.4057C18.0024 4.25 18.5747 4.48705 18.9967 4.90901C19.4186 5.33097 19.6557 5.90326 19.6557 6.5V7.276" stroke="#444748" stroke-width="2.5" stroke-linecap="round" stroke-linejoin="round"/>
</svg>
